# xmcd CD database file
#
# Track frame offsets:
#	150
#	12883
#	26041
#	38572
#	50753
#	62102
#	73918
#	85989
#	99838
#	112687
#	124534
#	138013
#	152075
#	164818
#	174855
#	187314
#	198207
#	210643
#	221299
#	231328
#
# Disc length: 3204 seconds
#
# Revision: 1
# Processed by: cddbd v1.4PL0 Copyright (c) Steve Scherf et al.
# Submitted via: CDex 1.40PlusFr
#
DISCID=110c8214
DTITLE=Wilf Carter - The Anthology
DYEAR=1900
DGENRE=Country
TTITLE0=I've Hung Up My Chaps And Saddle
TTITLE1=Old Shep
TTITLE2=I Ain't Gonna Be A Hobo Nomore
TTITLE3=Born To Lose
TTITLE4=Pete Knight, The King Of The Cowboys
TTITLE5=So Hard To Start All Over Again
TTITLE6=I'll Never Die Of A Broken Heart
TTITLE7=Dreaming Of My Blue Eyes
TTITLE8=My Queen Of The Prairies
TTITLE9=Hang The Key On The Bunkhouse Door
TTITLE10=There's A Love Knot In My Lariat
TTITLE11=If We Can't Be Sweethearts, Why Can't We Be Friends
TTITLE12=I'm Gonna Tear Down The Mailbox
TTITLE13=There's A Bluebird On Your Windowsill
TTITLE14=Blue Canadian Rockies
TTITLE15=My Oklahoma Rose
TTITLE16=A Bouquet Of Memories
TTITLE17=When That Love Bug Bites You
TTITLE18=Huggin', Squeezin', Kissin', Teasin'
TTITLE19=Hot Foot Boogie
EXTD=ID3G: 2
EXTT0=
EXTT1=
EXTT2=
EXTT3=
EXTT4=
EXTT5=
EXTT6=
EXTT7=
EXTT8=
EXTT9=
EXTT10=
EXTT11=
EXTT12=
EXTT13=
EXTT14=
EXTT15=
EXTT16=
EXTT17=
EXTT18=
EXTT19=
PLAYORDER=
